HIERARCHY
ROOT Hips
{
	OFFSET 0.00000 0.00000 0.00000
	CHANNELS 6 Xposition Yposition Zposition Zrotation Yrotation Xrotation 
	JOINT LHipJoint
	{
		OFFSET 0 0 0
		CHANNELS 3 Zrotation Yrotation Xrotation
		JOINT LeftHip
		{
			OFFSET 1.56741 -1.82513 0.67319
			CHANNELS 3 Zrotation Yrotation Xrotation
			JOINT LeftKnee
			{
				OFFSET 2.35708 -6.47604 0.00000
				CHANNELS 3 Zrotation Yrotation Xrotation
				JOINT LeftAnkle
				{
					OFFSET 2.70636 -7.43567 0.00000
					CHANNELS 3 Zrotation Yrotation Xrotation
					JOINT LeftToe
					{
						OFFSET 0.20427 -0.56122 2.08535
						CHANNELS 3 Zrotation Yrotation Xrotation
						End Site
						{
							OFFSET 0.00000 -0.00000 1.08535
						}
					}
				}
			}
		}
	}
	JOINT RHipJoint
	{
		OFFSET 0 0 0
		CHANNELS 3 Zrotation Yrotation Xrotation
		JOINT RightHip
		{
			OFFSET -1.51422 -1.82513 0.67319
			CHANNELS 3 Zrotation Yrotation Xrotation
			JOINT RightKnee
			{
				OFFSET -2.48824 -6.83638 0.00000
				CHANNELS 3 Zrotation Yrotation Xrotation
				JOINT RightAnkle
				{
					OFFSET -2.70033 -7.41909 0.00000
					CHANNELS 3 Zrotation Yrotation Xrotation
					JOINT RightToe
					{
						OFFSET -0.19750 -0.54263 2.22151
						CHANNELS 3 Zrotation Yrotation Xrotation
						End Site
						{
							OFFSET -0.00000 -0.00000 1.14915
						}
					}
				}
			}
		}
	}
	JOINT lowerback
	{
		OFFSET 0 0 0
		CHANNELS 3 Zrotation Yrotation Xrotation
		JOINT Chest
		{
			OFFSET -0.01567 2.12874 -0.15842
			CHANNELS 3 Zrotation Yrotation Xrotation
			JOINT Chest2
			{
				OFFSET 0.06098 2.13326 -0.01043
				CHANNELS 3 Zrotation Yrotation Xrotation
				JOINT lowerneck
				{
					OFFSET 0 0 0
					CHANNELS 3 Zrotation Yrotation Xrotation
					JOINT Neck
					{
						OFFSET -0.05040 1.78432 0.13387
						CHANNELS 3 Zrotation Yrotation Xrotation
						JOINT Head
						{
							OFFSET -0.00180 1.76880 -0.33303
							CHANNELS 3 Zrotation Yrotation Xrotation
							End Site
							{
								OFFSET 0.00734 1.81249 -0.12719
							}
						}
					}
				}
				JOINT LeftCollar
				{
					OFFSET 0 0 0
					CHANNELS 3 Zrotation Yrotation Xrotation
					JOINT LeftShoulder
					{
						OFFSET 3.72199 0.94188 -0.54317
CHANNELS 3 Zrotation Xrotation Yrotation
						JOINT LeftElbow
						{
OFFSET 0 -5.146010 0.000000
CHANNELS 3 Zrotation Xrotation Yrotation
							JOINT LeftWrist
							{
OFFSET 0 -3.644520 -0.000000
CHANNELS 3 Zrotation Xrotation Yrotation
								JOINT lhand
								{
									OFFSET 0 0 0
CHANNELS 3 Zrotation Xrotation Yrotation
									JOINT LFingers
									{
OFFSET 0 -0.562280 0.000000
CHANNELS 3 Zrotation Xrotation Yrotation
										End Site
										{
OFFSET 0 -0.453320 0.000000
										}
									}
								}
								JOINT LThumb
								{
OFFSET 0 0.000000 0.000000
CHANNELS 3 Zrotation Xrotation Yrotation
									End Site
									{
OFFSET 0 -0.460250 0.460250
									}
								}
							}
						}
					}
				}
				JOINT RightCollar
				{
					OFFSET 0 0 0
					CHANNELS 3 Zrotation Yrotation Xrotation
					JOINT RightShoulder
					{
						OFFSET -3.30253 1.22679 -0.46941
CHANNELS 3 Zrotation Xrotation Yrotation
						JOINT RightElbow
						{
OFFSET 0 -5.339130 0.000000
CHANNELS 3 Zrotation Xrotation Yrotation
							JOINT RightWrist
							{
OFFSET 0 -3.564780 -0.000000
CHANNELS 3 Zrotation Xrotation Yrotation
								JOINT rhand
								{
									OFFSET 0 0 0
CHANNELS 3 Zrotation Xrotation Yrotation
									JOINT RFingers
									{
OFFSET 0 -0.857470 0.000000
CHANNELS 3 Zrotation Xrotation Yrotation
										End Site
										{
OFFSET 0 -0.691320 0.000000
										}
									}
								}
								JOINT RThumb
								{
OFFSET 0 0.000000 0.000000
CHANNELS 3 Zrotation Xrotation Yrotation
									End Site
									{
OFFSET 0 -0.701870 0.701870
									}
								}
							}
						}
					}
				}
			}
		}
	}
}
MOTION
Frames: 10
Frame Time: 0.008333333333333333
-12.700600 17.135000 -11.469400 -1.813200 -8.635600 -2.823200 0.000000 0.000000 0.000000 -8.301100 -6.872300 -22.867400 1.239100 7.058700 19.889500 -0.272400 9.449800 -5.749200 0.362100 -3.865700 -10.699000 0.000000 0.000000 0.000000 24.280600 -1.049400 6.264500 -2.654800 -10.114100 29.346900 -1.503500 -7.379300 -26.864000 -0.000200 -0.100800 0.276900 3.050100 2.567900 5.435900 2.306700 3.688500 -0.117500 0.375100 1.803300 -3.127300 -5.399700 0.538200 -21.519700 1.196700 2.432100 29.359500 1.821300 0.615700 13.430900 -0.000000 -0.000000 0.000000 21.539800 1.155600 -43.886100 33.326900 -43.579800 13.646900 -5.986400 -44.480500 -29.921800 0.000000 0.000000 0.000000 -7.125000 0.000000 0.000000 -39.187400 55.334800 11.190900 -0.000000 -0.000000 0.000000 -19.006500 -4.541500 36.719000 -25.435900 -36.646200 -8.548700 24.715000 -13.912700 -8.841800 0.000000 0.000000 0.000000 7.125000 0.000000 -0.000000 34.358400 19.949200 25.613400
-12.334471 17.081544 -10.710068 -2.198945 -9.659651 -2.324691 0.000000 0.000000 0.000000 -8.968799 -4.752702 -27.542205 2.527135 9.886661 28.610797 -0.020391 2.993337 -2.791870 0.338508 -3.738241 -10.341523 0.000000 0.000000 0.000000 22.974452 -0.746446 9.397570 -2.412345 -9.676663 27.935982 -1.308907 -7.993048 -25.847700 -0.108188 2.116051 -5.826754 3.916264 2.456228 5.836626 2.593229 3.614833 0.105753 0.181813 1.755938 -3.088225 -5.172952 0.728848 -21.866281 0.965084 2.692437 28.358785 1.722279 0.745597 13.082385 0.000000 0.000000 0.000000 21.668259 -2.739158 -45.447626 31.604009 -42.229138 12.473916 -8.591973 -43.874951 -31.154656 0.000000 0.000000 0.000000 -7.125000 0.000000 0.000000 -42.638519 55.771839 12.945775 0.000000 0.000000 0.000000 -18.325856 -3.661992 34.707710 -25.207573 -36.415274 -8.412855 24.584190 -14.392515 -9.103264 0.000000 0.000000 0.000000 7.125000 0.000000 0.000000 34.223511 19.733395 25.674708
-11.841410 17.013762 -9.753590 -2.099709 -11.891724 -2.253806 0.000000 0.000000 0.000000 -10.965406 -1.309011 -29.542288 3.914183 12.044881 35.891625 0.040827 0.011662 -3.822347 0.340418 -3.746256 -10.364256 0.000000 0.000000 0.000000 19.529949 -0.421626 11.114900 -2.778023 -10.326349 30.040587 -1.246459 -5.159388 -23.529018 -0.486955 4.471880 -12.408579 4.042010 2.073809 6.126759 3.190168 3.148597 0.125474 0.753415 1.522491 -3.269280 -4.747372 1.436543 -21.400748 0.452850 3.690373 28.564305 1.617300 1.151720 13.055012 0.000000 0.000000 0.000000 21.466853 -3.414094 -46.706624 32.528219 -42.964244 13.099465 -8.129549 -42.197127 -29.371350 0.000000 0.000000 0.000000 -7.125000 0.000000 0.000000 -40.643647 54.485485 10.816339 0.000000 0.000000 0.000000 -18.882558 -2.748420 34.776977 -24.259001 -35.436821 -7.856246 23.402215 -13.439262 -8.360668 0.000000 0.000000 0.000000 7.125000 0.000000 0.000000 33.802852 20.564194 24.371634
-11.306123 16.953624 -8.655655 -1.266759 -12.835487 -3.871865 0.000000 0.000000 0.000000 -14.253245 2.231131 -27.694627 4.936667 13.312092 40.548216 0.220288 -4.038910 -8.387998 0.115602 -2.191820 -6.036054 0.000000 0.000000 0.000000 13.837575 -1.489776 8.528922 -5.019524 -13.402462 40.900240 -0.565025 0.405303 -14.047422 -0.387571 3.997644 -11.070116 3.203932 1.228656 6.470478 3.813796 1.966136 0.819497 1.968105 0.957712 -2.809764 -4.281447 2.111940 -20.302056 -0.247489 4.621019 27.994160 1.393725 1.538351 12.601600 0.000000 0.000000 0.000000 21.383138 -4.468542 -48.327717 32.727366 -43.119446 13.235372 -6.747460 -40.758300 -28.087953 0.000000 0.000000 0.000000 -7.125000 0.000000 0.000000 -38.354316 53.728936 9.292531 0.000000 0.000000 0.000000 -19.414252 -1.060870 30.980426 -24.379170 -35.562653 -7.926015 22.423660 -10.010447 -14.243329 0.000000 0.000000 0.000000 7.125000 0.000000 0.000000 31.912540 15.384853 26.934605
-10.870289 16.977620 -7.718269 1.779131 -11.799839 -5.506208 0.000000 0.000000 0.000000 -20.035289 3.528715 -23.224508 4.745729 13.091494 39.711977 0.402195 -5.220370 -11.326666 0.083164 -1.860438 -5.120135 0.000000 0.000000 0.000000 6.510398 -0.514739 -3.087527 -10.878301 -17.871838 62.381751 -0.069689 -0.720221 4.704979 -0.202622 -2.868767 7.915556 -1.043274 0.124906 7.998999 4.001981 0.222005 0.790078 4.733241 0.151104 -3.689938 -3.953504 2.833077 -20.135934 -0.717751 5.700569 28.510149 1.340425 1.967034 12.780234 0.000000 0.000000 0.000000 20.763901 -6.717412 -49.164939 30.872475 -41.629147 11.985161 -5.653635 -37.557973 -28.202784 0.000000 0.000000 0.000000 -7.125000 0.000000 0.000000 -37.462488 54.024047 9.312392 0.000000 0.000000 0.000000 -18.828324 2.768368 25.678362 -26.791706 -37.979732 -9.370673 22.625953 -12.162534 -9.592559 0.000000 0.000000 0.000000 7.125000 0.000000 0.000000 33.081228 19.557930 24.544577
-10.658359 17.147123 -6.926731 2.008259 -10.188417 -5.180307 0.000000 0.000000 0.000000 -22.012621 3.562474 -18.662232 4.020339 12.187130 36.397534 0.525365 -5.432121 -12.919737 0.128845 -2.312918 -6.371357 0.000000 0.000000 0.000000 6.335623 0.715488 -16.312840 -14.822628 -19.344739 74.701795 -0.045562 -5.116900 4.886421 -1.121234 -6.719723 18.890217 -2.787926 -0.949848 8.134051 4.353663 -1.357189 0.884124 6.280264 -0.615033 -3.474697 -3.903868 3.394169 -20.450876 -0.539834 6.436351 28.266774 1.522456 2.325217 12.722215 0.000000 0.000000 0.000000 21.034646 -9.650622 -49.135239 29.057810 -40.071705 10.798006 -4.602376 -36.972691 -28.442135 0.000000 0.000000 0.000000 -7.125000 0.000000 0.000000 -36.700277 54.415047 9.452007 0.000000 0.000000 0.000000 -16.194640 5.094272 20.160845 -26.299670 -37.503002 -9.069544 22.546802 -10.913643 -11.618846 0.000000 0.000000 0.000000 7.125000 0.000000 0.000000 32.553106 17.743187 25.633330
-10.576110 17.295035 -6.136291 2.678716 -8.912646 -4.471392 0.000000 0.000000 0.000000 -23.780571 3.623705 -13.679955 3.139135 10.916833 31.999905 0.643210 -5.548203 -14.287008 0.127332 -2.299974 -6.335521 0.000000 0.000000 0.000000 8.100918 0.699973 -26.452326 -13.425044 -18.929868 70.440298 -0.042623 -1.468002 -4.715065 -0.684571 -5.289025 14.735055 -4.324837 -1.796709 7.594851 4.196278 -2.616667 0.750491 7.101215 -1.234314 -3.087838 -3.958034 3.730889 -20.467154 -0.795619 7.031736 28.481350 1.535768 2.534741 12.812728 0.000000 0.000000 0.000000 20.951859 -10.720760 -48.013752 28.010868 -39.126251 10.130582 -4.358543 -36.071209 -27.511001 0.000000 0.000000 0.000000 -7.125000 0.000000 0.000000 -35.752249 53.699812 8.490675 0.000000 0.000000 0.000000 -14.611646 7.642686 18.809599 -25.015521 -36.219661 -8.299162 21.327481 -10.301660 -9.934591 0.000000 0.000000 0.000000 7.125000 0.000000 0.000000 32.298235 19.402711 23.838696
-10.592748 17.372231 -5.283680 4.241052 -6.872929 -3.988688 0.000000 0.000000 0.000000 -26.016493 4.248940 -8.113421 2.255164 9.378437 26.986403 0.728462 -6.421427 -15.232506 0.175376 -2.697860 -7.438767 0.000000 0.000000 0.000000 10.101588 -2.599956 -32.705289 -8.160312 -16.235405 53.137135 -0.081712 -6.652783 -11.294019 -0.083584 -1.861217 5.122405 -6.671858 -2.402817 6.982913 3.680983 -3.609099 0.442845 7.957597 -1.706784 -2.802906 -4.385211 3.583139 -20.098219 -0.718396 6.944132 28.963265 1.621163 2.444299 12.917432 0.000000 0.000000 0.000000 20.277676 -11.839422 -46.802650 26.442548 -37.642357 9.156584 -4.993125 -33.195805 -27.153780 0.000000 0.000000 0.000000 -7.125000 0.000000 0.000000 -36.055427 53.291598 8.193661 0.000000 0.000000 0.000000 -13.875107 9.877561 16.927489 -25.254291 -36.462742 -8.440552 18.456124 -5.991576 -11.297213 0.000000 0.000000 0.000000 7.125000 0.000000 0.000000 30.396740 18.453537 22.649317
-10.701005 17.415742 -4.383700 6.148353 -5.548518 -3.640322 0.000000 0.000000 0.000000 -27.859413 6.984732 -1.536739 1.181918 6.899044 19.416984 0.636138 -7.375233 -14.352508 0.205097 -2.915860 -8.044639 0.000000 0.000000 0.000000 8.597061 1.900086 -31.934403 -3.249242 -11.086184 32.573179 0.220825 -11.249901 -12.205569 -0.044845 -1.248162 3.433780 -8.246031 -2.387076 5.705431 2.407871 -3.648126 0.344510 7.422879 -1.738589 -2.169720 -4.446083 3.161234 -20.240675 -0.357237 6.304213 30.024898 1.692691 2.163014 13.385132 0.000000 0.000000 0.000000 20.128242 -12.195711 -45.954936 25.108402 -36.314554 8.354020 -5.193700 -30.600652 -26.627586 0.000000 0.000000 0.000000 -7.125000 0.000000 0.000000 -35.844859 52.823990 7.694729 0.000000 0.000000 0.000000 -13.989603 10.955351 16.665468 -25.717817 -36.928734 -8.717574 18.536530 -4.795672 -12.262131 0.000000 0.000000 0.000000 7.125000 0.000000 0.000000 30.237109 17.574055 23.198053
-10.881972 17.382427 -3.464298 6.589313 -2.184995 -2.901365 0.000000 0.000000 0.000000 -27.873522 6.744125 3.554445 0.770195 5.603679 15.638805 0.640497 -7.561910 -14.423909 0.235802 -3.122799 -8.621090 0.000000 0.000000 0.000000 4.182944 9.314248 -29.706027 -1.961799 -8.785891 25.128015 1.038729 -19.847597 -17.146410 -0.058304 -1.526610 4.199543 -7.945796 -2.729230 4.890229 1.879557 -4.043858 -0.051888 6.673091 -1.928847 -2.112143 -5.073282 2.626403 -20.536394 -0.672563 5.931510 30.686530 1.633430 1.853728 13.742044 0.000000 0.000000 0.000000 19.195166 -10.691802 -45.398353 25.213271 -36.421161 8.416214 -4.866674 -29.544755 -25.553815 0.000000 0.000000 0.000000 -7.125000 0.000000 0.000000 -34.784381 51.992832 6.656535 0.000000 0.000000 0.000000 -16.057970 10.445951 16.554614 -26.180995 -37.386853 -8.997321 20.062044 -2.123651 -16.118423 0.000000 0.000000 0.000000 7.125000 0.000000 0.000000 30.305755 13.938294 26.144438
